<svg xmlns="http://www.w3.org/2000/svg" version="1.1" xmlns:xlink="http://www.w3.org/1999/xlink" xmlns:svgjs="http://svgjs.dev/svgjs" width="1440" height="560" preserveAspectRatio="none" viewBox="0 0 1440 560"><g mask="url(&quot;#SvgjsMask1068&quot;)" fill="none"><rect width="1440" height="560" x="0" y="0" fill="rgba(235, 224, 203, 1)"></rect><path d="M0,548.628C106.569,544.884,209.945,523.187,304.281,473.47C405.049,420.363,495.403,350.051,557.714,254.7C626.921,148.796,688.061,28.671,677.328,-97.385C666.372,-226.057,584.255,-335.389,499.197,-432.557C414.469,-529.348,317.25,-625.045,191.542,-652.333C68.922,-678.951,-58.215,-635.439,-169.641,-577.746C-268.224,-526.702,-323.742,-427.31,-399.599,-346.255C-479.104,-261.302,-607.544,-204.883,-626.092,-90.018C-644.645,24.877,-545.938,121.574,-491.778,224.587C-440.869,321.417,-409.686,435.15,-318.337,495.342C-226.64,555.762,-109.745,552.483,0,548.628" fill="#dfcdab"></path><path d="M1440 858.553C1498.844 864.341 1557.746 851.9590000000001 1610.615 825.482 1667.596 796.9449999999999 1726.814 761.019 1751.807 702.3969999999999 1776.6390000000001 644.152 1749.66 579.424 1742.334 516.531 1734.778 451.66200000000003 1742.567 383.148 1708.156 327.64099999999996 1671.09 267.851 1613.713 218.03199999999998 1545.833 199.565 1478.445 181.23200000000003 1402.347 192.075 1342.57 228.18400000000003 1287.671 261.347 1275.202 332.779 1238.373 385.289 1206.286 431.038 1154.878 462.992 1140.086 516.879 1124.412 573.982 1126.51 638.213 1154.645 690.317 1182.156 741.267 1239.794 764.504 1289.674 793.9110000000001 1337.633 822.1859999999999 1384.594 853.1030000000001 1440 858.553" fill="#f7f3eb"></path></g><defs><mask id="SvgjsMask1068"><rect width="1440" height="560" fill="#ffffff"></rect></mask></defs></svg>