<?xml version="1.0" standalone="no"?>
<!DOCTYPE svg PUBLIC "-//W3C//DTD SVG 20010904//EN"
 "http://www.w3.org/TR/2001/REC-SVG-20010904/DTD/svg10.dtd">
<svg version="1.0" xmlns="http://www.w3.org/2000/svg"
 width="1200.000000pt" height="750.000000pt" viewBox="0 0 1200.000000 750.000000"
 preserveAspectRatio="xMidYMid meet">

<g transform="translate(0.000000,750.000000) scale(0.100000,-0.100000)"
fill="#000000" stroke="none">
<path d="M1908 7400 c-328 -40 -423 -453 -254 -1110 105 -410 376 -1078 539
-1329 l41 -63 -19 -32 c-126 -211 -208 -381 -271 -561 l-42 -120 -88 5 c-277
16 -494 -3 -710 -60 -152 -40 -444 -155 -444 -175 0 -3 3 -4 8 -1 27 16 456
76 687 96 134 11 410 13 469 3 37 -6 38 -7 32 -42 -33 -189 -45 -253 -48 -256
-1 -1 -57 -8 -123 -14 -280 -27 -508 -102 -720 -238 -82 -53 -177 -124 -172
-129 2 -2 45 14 95 35 226 99 551 197 747 225 61 9 123 19 139 21 l29 5 -6
-114 c-22 -445 96 -935 324 -1351 257 -468 635 -868 1134 -1199 207 -137 302
-192 527 -300 688 -332 1431 -497 2248 -498 288 0 465 10 715 42 1771 226
3177 1297 3479 2652 46 207 59 319 60 546 l1 213 50 -6 c206 -26 473 -101 743
-209 183 -72 189 -66 32 39 -227 153 -463 237 -743 264 -48 5 -90 11 -92 13
-3 2 -14 58 -26 124 -11 65 -23 134 -26 152 l-6 32 145 0 c239 0 588 -34 856
-84 67 -12 119 -19 114 -14 -20 20 -276 123 -386 154 -210 61 -324 77 -560 78
l-208 2 -38 104 c-73 202 -155 373 -272 559 l-58 94 93 186 c217 432 402 937
477 1300 107 520 34 851 -208 941 -69 26 -206 29 -303 6 -236 -55 -554 -220
-907 -473 -219 -156 -537 -415 -713 -580 -37 -35 -71 -63 -76 -63 -6 0 -82 29
-171 64 -484 195 -1019 315 -1577 356 -180 13 -590 13 -770 0 -610 -45 -1239
-197 -1729 -419 l-69 -31 -27 22 c-16 13 -81 71 -147 129 -308 277 -629 524
-908 699 -256 161 -556 291 -702 305 -32 3 -69 7 -83 9 -14 1 -51 -1 -82 -4z
m2982 -4545 c54 -30 147 -78 206 -105 236 -111 359 -137 484 -106 92 23 251
104 355 180 l89 66 61 -59 c112 -108 255 -185 392 -211 37 -8 107 -11 170 -8
189 8 346 81 493 229 37 38 70 66 74 62 3 -3 6 -25 6 -49 0 -32 -8 -53 -35
-90 -57 -81 -63 -101 -79 -279 -29 -323 -109 -616 -236 -873 -65 -130 -195
-341 -219 -356 -6 -4 -38 9 -70 28 -32 20 -61 36 -65 36 -3 0 -6 -47 -6 -104
l0 -104 -56 -50 c-102 -92 -238 -142 -384 -142 -140 0 -293 59 -394 151 l-54
49 -7 78 c-4 42 -10 91 -14 109 l-6 32 -55 -34 -54 -34 -53 72 c-207 284 -347
671 -414 1147 l-22 155 -79 63 c-90 73 -138 132 -138 174 0 15 3 28 6 28 3 0
50 -25 104 -55z"/>
</g>
</svg>
