<?xml version="1.0" standalone="no"?>
<!DOCTYPE svg PUBLIC "-//W3C//DTD SVG 20010904//EN"
 "http://www.w3.org/TR/2001/REC-SVG-20010904/DTD/svg10.dtd">
<svg version="1.0" xmlns="http://www.w3.org/2000/svg"
 width="615.000000pt" height="480.000000pt" viewBox="0 0 615.000000 480.000000"
 preserveAspectRatio="xMidYMid meet">

<g transform="translate(0.000000,480.000000) scale(0.100000,-0.100000)"
fill="#000000" stroke="none">
<path d="M2515 4758 c-143 -75 -296 -250 -368 -422 -17 -39 -49 -93 -74 -120
-60 -67 -142 -193 -196 -301 -170 -343 -198 -809 -70 -1170 36 -101 117 -252
178 -332 l52 -68 691 -3 692 -2 0 34 c0 62 30 180 62 245 58 120 158 191 224
160 61 -29 58 -107 -6 -139 -75 -38 -120 -128 -120 -242 l0 -58 223 0 c246 1
332 11 442 55 195 78 334 223 401 420 23 67 27 98 28 185 0 183 -55 311 -194
451 -97 98 -182 149 -330 201 -94 32 -97 32 -285 33 -166 0 -202 -3 -280 -23
-118 -30 -235 -79 -356 -148 -126 -72 -233 -106 -455 -144 -98 -18 -186 -36
-196 -41 -52 -28 -118 3 -118 55 0 76 76 107 329 136 249 28 378 92 433 216 7
16 24 41 39 56 14 14 30 41 36 60 9 32 8 35 -42 83 -48 46 -54 58 -75 135 -12
47 -33 109 -47 138 -30 64 -113 156 -188 207 -34 24 -55 46 -55 57 0 35 41
182 66 236 13 29 24 57 24 63 0 28 -178 -65 -253 -132 l-57 -51 0 -73 0 -74
-62 -37 c-35 -20 -67 -39 -72 -42 -11 -6 -1 140 19 282 22 154 24 148 -40 114z
m472 -632 c22 -19 28 -32 28 -66 0 -34 -6 -47 -28 -66 -63 -54 -157 -17 -157
62 0 82 94 124 157 70z m-109 -362 c29 -33 28 -50 -7 -85 l-29 -29 -202 0
c-215 0 -251 7 -265 51 -10 29 13 77 41 86 13 4 117 7 231 5 208 -3 208 -3
231 -28z"/>
<path d="M4797 3180 c23 -111 20 -287 -6 -383 -41 -154 -147 -315 -276 -420
-74 -59 -191 -118 -310 -154 l-90 -28 -1175 -5 -1175 -5 -48 -24 c-56 -27 -93
-72 -112 -134 -29 -96 18 -200 110 -247 l49 -25 1201 -3 c1278 -3 1319 -2
1462 45 243 79 386 207 504 448 71 146 84 202 84 375 0 116 -5 163 -23 235
-27 107 -115 291 -171 355 l-39 45 15 -75z"/>
<path d="M2469 1678 c-5 -19 -4 -48 2 -48 11 0 18 39 8 46 -5 3 -9 4 -10 2z"/>
<path d="M2341 1549 c-47 -100 -184 -497 -176 -509 3 -5 27 -1 53 9 26 10 79
24 117 30 97 17 146 31 141 40 -3 4 -67 -5 -142 -21 -75 -16 -138 -27 -140
-25 -7 6 124 384 161 466 20 45 34 85 31 88 -3 4 -24 -32 -45 -78z"/>
<path d="M2883 1582 c-37 -54 -72 -131 -99 -215 -14 -46 -30 -70 -74 -113 -94
-92 -170 -119 -170 -60 0 19 9 29 35 42 43 20 75 59 75 91 0 56 -66 30 -107
-43 -37 -65 -24 -144 23 -144 26 0 95 40 140 82 l45 41 -8 -59 c-22 -165 13
-189 101 -68 l48 65 20 -32 c17 -28 23 -31 51 -25 30 6 66 27 130 76 l27 22 0
-26 c0 -15 7 -29 15 -32 29 -12 63 6 144 76 44 39 81 65 81 59 0 -17 -61 -221
-73 -244 -6 -11 -27 -43 -48 -70 -72 -96 -109 -210 -72 -222 19 -7 62 68 104
178 40 106 90 176 169 239 l40 32 0 -26 c0 -38 20 -32 75 24 27 28 52 50 55
50 3 0 4 -20 2 -45 -4 -40 -2 -45 16 -45 11 0 42 16 68 36 33 26 45 31 40 18
-19 -50 -29 -115 -19 -125 7 -7 20 7 43 48 43 76 88 133 106 133 9 0 14 -12
14 -36 0 -79 36 -94 96 -41 l37 32 -7 -35 c-14 -67 -19 -129 -12 -155 13 -51
45 -28 143 104 86 114 103 145 73 126 -7 -4 -50 -59 -96 -121 -50 -68 -89
-112 -96 -108 -20 12 0 127 44 260 l43 129 70 8 c39 4 94 10 124 13 29 3 49 9
45 13 -5 5 -53 4 -107 -1 -54 -6 -101 -7 -104 -4 -3 3 4 28 16 57 12 28 19 54
16 57 -7 7 -12 -1 -55 -78 -24 -43 -28 -45 -87 -55 -85 -14 -92 -28 -10 -19
l67 7 -25 -74 c-17 -50 -37 -86 -63 -112 -67 -70 -92 -70 -92 -1 0 16 -6 38
-13 48 -19 26 -47 9 -97 -61 -22 -31 -40 -51 -40 -45 0 6 14 47 30 92 34 91
33 90 21 90 -4 0 -16 -19 -25 -43 -15 -41 -72 -98 -123 -126 -21 -11 -23 -10
-23 16 0 15 12 55 25 88 14 33 25 63 25 68 0 16 -16 5 -38 -27 -20 -30 -28
-34 -55 -30 -29 4 -41 -4 -141 -101 -59 -58 -110 -104 -112 -102 -4 4 28 121
50 186 20 54 13 67 -24 41 -34 -24 -40 -25 -40 -5 0 22 -38 38 -73 31 -22 -4
-59 -35 -122 -99 -98 -100 -162 -140 -190 -117 -26 22 -17 47 22 67 40 19 86
77 81 102 -5 27 -43 24 -72 -6 -16 -15 -55 -66 -87 -113 -89 -129 -107 -148
-118 -130 -12 17 -5 101 14 179 8 29 37 92 66 139 51 82 98 183 99 210 0 26
-26 10 -57 -36z m-8 -82 c-37 -74 -60 -94 -27 -24 31 67 53 106 58 101 3 -3
-11 -37 -31 -77z m423 -166 c3 -27 -4 -37 -45 -71 -82 -68 -113 -79 -113 -38
0 66 76 148 130 143 20 -2 26 -9 28 -34z m-668 -13 c0 -11 -14 -31 -31 -45
-55 -47 -67 -28 -18 29 35 39 49 44 49 16z m380 -11 c-11 -20 -61 -63 -67 -57
-8 9 17 56 38 71 27 19 43 11 29 -14z m580 -3 c0 -7 -20 -33 -45 -57 -44 -43
-57 -42 -34 3 27 52 79 88 79 54z m-365 -406 c-26 -57 -55 -96 -55 -73 0 30
66 149 77 138 3 -2 -7 -32 -22 -65z"/>
<path d="M2655 1420 c-24 -54 -12 -63 14 -11 23 45 25 51 13 51 -5 0 -17 -18
-27 -40z"/>
<path d="M3040 1420 c-11 -22 -16 -40 -10 -40 5 0 19 18 30 40 11 22 16 40 10
40 -5 0 -19 -18 -30 -40z"/>
<path d="M5115 991 c-23 -10 -46 -29 -53 -45 -17 -38 -17 -853 0 -891 33 -73
181 -72 209 2 5 15 9 194 9 442 -1 398 -2 419 -21 450 -17 27 -70 62 -96 61
-4 0 -26 -9 -48 -19z"/>
<path d="M418 988 c-138 -16 -256 -88 -333 -204 -61 -90 -80 -158 -79 -289 1
-95 4 -119 26 -172 32 -77 74 -138 132 -193 62 -60 91 -77 166 -101 257 -81
564 79 476 250 -8 15 -33 36 -55 46 -39 17 -41 17 -67 -1 -62 -45 -82 -55
-129 -69 -170 -49 -319 73 -319 261 0 66 3 77 35 126 81 121 230 151 352 69
83 -54 197 -1 197 91 0 55 -72 124 -169 162 -60 23 -152 33 -233 24z"/>
<path d="M964 966 c-26 -26 -34 -43 -35 -72 -4 -146 0 -793 6 -820 8 -48 47
-74 107 -74 43 0 54 4 84 34 37 37 36 26 36 284 0 49 2 52 27 53 72 4 164 3
171 -1 5 -3 10 -74 12 -158 l3 -154 34 -30 c30 -27 39 -30 84 -25 41 3 56 11
79 36 32 36 30 -9 28 594 -1 309 -4 328 -51 353 -61 31 -162 3 -174 -48 -3
-13 -6 -90 -8 -173 l-2 -150 -100 0 -100 0 -1 146 c0 90 -5 158 -13 176 -16
38 -59 63 -111 63 -34 0 -48 -6 -76 -34z"/>
<path d="M1975 967 c-21 -21 -38 -53 -49 -92 -26 -89 -131 -419 -187 -585 -59
-176 -62 -219 -18 -261 25 -24 40 -29 79 -29 60 0 96 32 124 109 l18 52 115
-3 115 -3 20 -52 c25 -69 66 -103 123 -103 55 0 115 46 115 89 0 29 -241 771
-273 839 -36 78 -124 97 -182 39z m87 -585 c-24 -2 -47 -1 -50 2 -3 4 5 40 18
82 l24 76 27 -78 26 -79 -45 -3z"/>
<path d="M3364 982 c-43 -34 -44 -43 -44 -490 l0 -430 29 -31 c24 -26 36 -31
76 -31 54 0 98 22 114 57 7 14 11 92 11 190 0 196 -11 200 129 -39 51 -87 106
-169 123 -183 51 -43 140 -27 166 30 9 19 12 141 12 445 0 450 -1 460 -51 486
-55 28 -145 10 -168 -34 -6 -10 -11 -100 -12 -200 -1 -100 -4 -182 -8 -182 -3
0 -53 86 -110 191 -58 105 -117 201 -134 215 -35 29 -101 33 -133 6z"/>
<path d="M4465 992 c-161 -17 -282 -111 -364 -282 l-36 -75 0 -140 0 -140 38
-77 c52 -108 127 -186 219 -229 70 -33 77 -34 193 -34 115 0 123 1 187 33 109
53 211 183 250 320 35 121 11 292 -56 406 -31 52 -110 131 -161 161 -71 41
-187 66 -270 57z m155 -271 c111 -67 147 -244 74 -369 -70 -120 -251 -137
-334 -32 -51 64 -64 106 -62 198 1 103 28 157 98 198 85 50 147 51 224 5z"/>
<path d="M2373 970 c-38 -23 -53 -48 -55 -94 -3 -76 62 -120 170 -114 l67 3 3
-349 c4 -378 4 -379 60 -405 33 -16 94 -13 120 5 50 35 52 49 52 409 l0 335
63 0 c69 0 120 12 140 32 39 39 47 90 21 139 -28 54 -55 59 -346 59 -243 0
-265 -2 -295 -20z"/>
<path d="M5464 957 l-29 -25 -3 -434 c-2 -418 -2 -434 18 -466 19 -31 22 -32
88 -32 62 0 71 3 95 28 25 26 26 33 28 145 2 115 3 117 25 117 18 0 41 -26
110 -127 48 -71 97 -136 108 -145 15 -12 39 -18 82 -18 80 0 114 24 114 79 0
38 -8 51 -104 190 l-44 63 57 57 c85 82 105 127 106 231 0 77 -3 92 -33 152
-40 82 -111 148 -190 179 -49 20 -81 23 -228 27 -170 4 -171 4 -200 -21z m356
-232 c82 -43 77 -175 -7 -202 -27 -9 -129 -10 -137 -2 -5 5 -8 88 -7 167 l1
52 60 0 c35 0 74 -7 90 -15z"/>
</g>
</svg>
