<?xml version="1.0" standalone="no"?>
<!DOCTYPE svg PUBLIC "-//W3C//DTD SVG 20010904//EN"
 "http://www.w3.org/TR/2001/REC-SVG-20010904/DTD/svg10.dtd">
<svg version="1.0" xmlns="http://www.w3.org/2000/svg"
 width="1023.000000pt" height="229.000000pt" viewBox="0 0 1023.000000 229.000000"
 preserveAspectRatio="xMidYMid meet">

<g transform="translate(0.000000,229.000000) scale(0.100000,-0.100000)"
fill="#000000" stroke="none">
<path d="M659 2223 c-69 -74 -89 -101 -138 -199 -22 -43 -59 -103 -83 -132
-143 -171 -228 -391 -247 -635 -21 -285 48 -547 196 -740 l44 -57 535 0 534 0
0 30 c0 95 57 230 119 281 40 33 100 40 121 14 18 -22 15 -68 -5 -80 -74 -43
-115 -114 -115 -202 l0 -43 188 0 c132 0 206 5 251 15 358 85 525 472 330 764
-73 109 -187 190 -337 238 -109 36 -307 37 -432 3 -94 -26 -182 -63 -268 -113
-92 -53 -158 -75 -312 -102 -80 -14 -164 -30 -187 -36 -23 -6 -54 -9 -67 -5
-46 11 -44 81 4 106 25 14 148 39 240 50 138 16 199 39 255 95 46 46 61 66
107 149 l18 31 -39 35 c-31 28 -43 51 -61 110 -12 41 -33 96 -46 121 -23 46
-119 143 -161 162 -28 12 -28 13 -3 106 11 41 20 78 20 83 0 4 -27 8 -60 8
-55 0 -62 -3 -100 -38 -37 -36 -40 -43 -40 -95 l0 -55 -50 -31 c-28 -17 -53
-31 -57 -31 -6 0 3 144 14 213 l6 37 -60 0 -60 0 -54 -57z m506 -378 c33 -33
32 -70 -4 -106 -35 -34 -45 -35 -87 -10 -37 23 -48 64 -28 102 23 46 81 53
119 14z m-89 -276 c20 -16 18 -53 -5 -73 -16 -14 -43 -17 -187 -17 -159 -1
-169 0 -185 20 -20 25 -14 56 15 77 17 13 48 14 184 10 105 -3 168 -9 178 -17z"/>
<path d="M5842 2150 c0 -14 2 -19 5 -12 2 6 2 18 0 25 -3 6 -5 1 -5 -13z"/>
<path d="M6328 2068 c-40 -62 -87 -164 -119 -261 -20 -59 -33 -77 -92 -133
-115 -109 -188 -130 -195 -58 -2 26 4 32 48 57 33 18 56 39 67 61 28 61 -7 88
-60 46 -31 -24 -77 -114 -77 -150 0 -37 27 -70 56 -70 33 0 110 41 158 85 60
55 61 54 46 -58 -11 -79 -2 -127 24 -127 16 0 97 86 123 131 22 37 38 37 52
-1 18 -53 84 -38 186 42 27 22 50 36 51 31 1 -4 5 -20 8 -35 13 -57 77 -30
199 82 40 37 72 59 77 54 12 -12 -74 -291 -99 -323 -51 -64 -112 -163 -126
-201 -28 -81 -13 -127 28 -82 23 26 65 114 93 194 35 103 63 146 156 233 83
78 83 78 88 50 3 -16 11 -30 17 -32 7 -3 39 23 71 56 31 34 61 61 66 61 5 0 6
-19 3 -43 -11 -78 20 -85 99 -21 23 18 44 31 47 28 3 -3 -4 -30 -14 -59 -41
-117 -16 -132 44 -28 60 103 99 148 120 140 11 -4 17 -18 17 -39 0 -41 20 -82
41 -86 9 -2 36 14 60 34 24 20 45 31 47 26 2 -6 -2 -37 -7 -68 -26 -141 -1
-203 57 -141 35 37 201 262 197 266 -9 8 -37 -24 -106 -123 -85 -119 -108
-146 -126 -146 -36 0 1 206 67 378 36 94 23 87 190 102 63 6 117 14 120 17 3
3 -55 2 -127 -2 -73 -4 -133 -4 -133 -1 0 4 11 29 25 56 14 27 25 55 25 62 -1
19 -35 -29 -61 -84 -23 -50 -28 -52 -121 -63 -32 -4 -58 -12 -58 -17 0 -5 8
-7 18 -4 46 13 110 17 117 7 3 -6 -5 -47 -20 -90 -22 -69 -34 -86 -85 -135
-32 -31 -63 -56 -68 -56 -17 0 -29 24 -36 72 -10 64 -26 75 -63 44 -17 -14
-45 -48 -64 -75 -32 -48 -49 -62 -49 -42 0 5 16 51 35 101 19 50 35 97 35 103
0 18 -26 -24 -39 -63 -11 -33 -78 -95 -138 -128 -20 -11 -24 -10 -29 3 -8 20
11 97 37 147 29 56 18 69 -17 20 -27 -38 -32 -41 -66 -35 -35 5 -39 2 -158
-113 -66 -66 -128 -120 -136 -122 -18 -4 -15 10 33 161 19 60 32 111 29 115
-4 3 -20 -5 -37 -17 l-30 -22 -30 32 c-25 27 -34 30 -61 25 -41 -8 -92 -43
-112 -77 -25 -42 -140 -144 -190 -169 -52 -24 -72 -22 -85 12 -11 29 2 54 31
61 55 14 121 119 83 133 -26 10 -62 -12 -94 -58 -104 -150 -188 -258 -199
-258 -23 0 -29 41 -16 124 19 129 35 171 102 274 13 20 13 22 -3 16 -15 -6
-16 -3 -10 17 14 45 75 159 85 159 15 0 12 -17 -12 -63 -31 -59 -48 -97 -42
-97 7 0 94 182 94 197 0 29 -30 10 -62 -39z m480 -260 c34 -34 -5 -93 -107
-159 -60 -38 -81 -38 -81 1 0 98 135 211 188 158z m-778 -47 c0 -21 -63 -81
-85 -81 -18 0 -10 24 22 68 27 36 63 43 63 13z m450 0 c0 -19 -62 -81 -80 -81
-20 0 -4 46 28 83 20 23 52 22 52 -2z m678 -9 c4 -14 -104 -130 -113 -120 -12
12 15 76 45 108 29 31 59 37 68 12z m-427 -468 c-15 -35 -37 -77 -49 -92 l-21
-27 0 25 c-1 46 70 177 89 165 5 -3 -4 -35 -19 -71z"/>
<path d="M5702 2048 c-35 -73 -123 -306 -147 -393 -10 -33 -31 -95 -48 -138
-16 -42 -27 -80 -23 -84 3 -4 22 1 40 10 19 9 94 28 168 43 73 14 138 31 143
36 7 7 3 8 -10 5 -11 -3 -77 -17 -147 -32 -70 -14 -134 -28 -142 -31 -8 -3
-17 -1 -20 4 -8 13 138 449 185 550 45 99 47 123 1 30z"/>
<path d="M6060 1880 c-22 -44 -25 -54 -10 -45 16 10 52 85 40 85 -5 0 -19 -18
-30 -40z"/>
<path d="M6510 1881 c-11 -23 -17 -41 -12 -41 10 0 45 70 38 77 -2 3 -14 -13
-26 -36z"/>
<path d="M4634 1374 c-68 -23 -68 -24 -74 -242 l-5 -197 -114 -3 c-85 -2 -117
1 -123 10 -4 7 -8 89 -8 181 0 186 -7 215 -60 242 -51 26 -140 16 -176 -19
-27 -27 -31 -109 -33 -563 -2 -501 -1 -505 61 -543 39 -24 82 -25 132 -5 64
27 70 47 76 245 l5 175 116 3 117 3 5 -28 c3 -15 6 -93 6 -172 2 -167 12 -200
68 -226 61 -29 142 -7 177 48 16 24 19 170 17 734 l-1 293 -28 31 c-35 39
-101 53 -158 33z"/>
<path d="M5295 1371 c-50 -23 -63 -50 -140 -301 -31 -102 -95 -302 -142 -445
-92 -281 -96 -314 -52 -361 31 -33 89 -48 137 -34 49 13 67 33 97 107 28 69
33 71 165 72 131 1 134 0 160 -70 12 -32 34 -70 47 -84 70 -69 223 -22 223 70
0 28 -133 451 -216 685 -9 25 -31 93 -49 152 -18 59 -41 124 -51 145 -33 66
-111 94 -179 64z m94 -612 c12 -41 21 -81 21 -87 0 -8 -19 -12 -55 -12 -46 0
-55 3 -55 18 0 14 28 111 46 161 8 24 21 0 43 -80z"/>
<path d="M6904 1370 c-23 -12 -46 -32 -53 -46 -8 -18 -11 -171 -11 -527 0
-551 -2 -530 60 -562 57 -29 138 -11 178 40 21 26 22 38 22 229 l1 201 27 -32
c26 -30 47 -65 139 -228 106 -189 137 -220 211 -219 59 1 97 25 113 72 19 57
19 975 0 1020 -16 38 -39 53 -101 63 -53 9 -119 -17 -138 -54 -8 -14 -13 -96
-16 -225 -3 -179 -7 -226 -19 -211 -10 12 -121 207 -167 294 -81 151 -104 183
-148 195 -49 13 -51 13 -98 -10z"/>
<path d="M8924 1372 c-26 -12 -45 -30 -53 -49 -16 -39 -19 -995 -3 -1035 38
-93 214 -86 242 9 8 26 10 191 8 523 -3 467 -4 486 -23 512 -42 55 -106 70
-171 40z"/>
<path d="M3414 1369 c-150 -18 -298 -128 -390 -291 -57 -99 -80 -281 -53 -410
17 -78 94 -212 165 -285 188 -193 546 -203 725 -21 73 73 72 166 -1 216 -57
38 -74 38 -130 -3 -68 -50 -141 -75 -218 -75 -53 0 -75 6 -124 32 -67 36 -95
67 -134 151 -31 68 -36 180 -10 241 39 93 125 160 225 177 78 12 139 -1 215
-48 57 -35 59 -35 111 -24 51 12 81 34 104 78 36 71 -27 157 -166 227 -66 33
-208 49 -319 35z"/>
<path d="M8145 1369 c-81 -12 -121 -26 -180 -65 -107 -69 -197 -189 -237 -315
-31 -98 -33 -294 -4 -379 26 -79 93 -188 146 -240 161 -157 454 -182 646 -54
62 42 115 108 185 231 51 90 65 301 28 433 -73 267 -317 430 -584 389z m178
-286 c62 -32 105 -75 137 -138 30 -59 32 -69 28 -147 -3 -70 -9 -94 -38 -153
-39 -77 -60 -96 -140 -125 -69 -25 -96 -25 -163 0 -68 26 -118 78 -152 160
-24 57 -27 74 -23 150 7 135 48 199 160 250 54 25 147 26 191 3z"/>
<path d="M5745 1361 c-11 -5 -33 -23 -49 -40 -24 -25 -29 -40 -29 -76 0 -91
63 -136 185 -133 42 1 80 -1 84 -5 4 -4 9 -184 11 -400 2 -254 8 -402 15 -420
13 -33 73 -67 118 -67 43 0 87 25 110 63 19 30 20 53 20 430 l0 397 83 0 c136
0 197 42 197 138 0 34 -6 49 -34 80 l-34 37 -329 2 c-180 1 -337 -2 -348 -6z"/>
<path d="M9390 1359 c-18 -4 -42 -17 -54 -28 -21 -21 -21 -26 -24 -529 -3
-542 -2 -551 47 -576 51 -26 80 -27 126 -7 60 26 85 69 83 141 0 30 0 88 1
128 l1 73 32 -3 c28 -3 41 -17 132 -153 78 -115 110 -155 141 -172 91 -52 205
-7 205 79 0 48 -6 59 -87 167 -98 129 -97 115 -10 204 98 99 121 154 115 278
-3 73 -9 97 -37 154 -42 86 -118 160 -206 204 -56 28 -82 34 -149 37 -164 8
-284 9 -316 3z m391 -318 c44 -43 49 -53 49 -92 0 -52 -37 -115 -73 -124 -12
-3 -58 -5 -102 -3 l-80 3 -3 119 c-2 78 1 123 9 132 8 10 34 14 82 14 l70 0
48 -49z"/>
<path d="M2564 1135 c3 -16 9 -77 12 -135 11 -185 -43 -328 -175 -460 -81 -82
-134 -116 -240 -154 -123 -44 -164 -46 -1064 -46 -940 0 -919 1 -972 -61 -47
-57 -52 -139 -12 -200 9 -14 36 -36 59 -50 l43 -24 934 -3 c807 -2 947 0 1024
13 106 18 208 59 292 116 154 105 275 344 275 544 0 153 -69 355 -158 460
l-25 30 7 -30z"/>
</g>
</svg>
