<svg xmlns="http://www.w3.org/2000/svg" version="1.1" xmlns:xlink="http://www.w3.org/1999/xlink" xmlns:svgjs="http://svgjs.dev/svgjs" width="1000" height="1000" preserveAspectRatio="none" viewBox="0 0 1000 1000"><g mask="url(&quot;#SvgjsMask1118&quot;)" fill="none"><rect width="1000" height="1000" x="0" y="0" fill="rgba(195, 175, 134, 1)"></rect><path d="M0,433.993C84.715,441.576,168.918,419.622,244.03,379.718C323.638,337.425,406.369,284.535,439.288,200.616C471.776,117.794,429.355,28.149,416.47,-59.879C403.623,-147.647,417.599,-244.707,363.782,-315.219C309.049,-386.932,215.845,-415.109,128.406,-437.309C43.413,-458.888,-44.273,-461.794,-129.316,-440.411C-216.785,-418.418,-320.933,-394.078,-362.294,-313.929C-404.096,-232.925,-323.685,-138.507,-331.959,-47.729C-339.557,35.625,-431.678,106.028,-407.887,186.276C-384.318,265.775,-288.355,295.367,-217.482,338.409C-148.4,380.364,-80.502,426.787,0,433.993" fill="#bea87b"></path><path d="M1000 1435.181C1079.934 1427.2440000000001 1142.835 1370.709 1208.581 1324.558 1271.659 1280.279 1331.818 1234.9569999999999 1375.593 1171.528 1426.29 1098.069 1482.54 1020.179 1480.226 930.954 1477.826 838.4300000000001 1432.914 746.105 1362.9850000000001 685.472 1296.2359999999999 627.596 1199.618 633.2719999999999 1113.612 613.0740000000001 1032.988 594.14 953.062 546.2149999999999 873.922 570.619 794.998 594.957 757.751 680.9549999999999 700.486 740.469 639.433 803.92 552.2180000000001 847.738 526.3009999999999 931.892 499.098 1020.224 514.434 1120.378 558.4590000000001 1201.645 601.265 1280.663 683.5450000000001 1326.784 762.986 1368.801 837.011 1407.954 916.669 1443.455 1000 1435.181" fill="#c9b691"></path></g><defs><mask id="SvgjsMask1118"><rect width="1000" height="1000" fill="#ffffff"></rect></mask></defs></svg>