<?xml version="1.0" standalone="no"?>
<!DOCTYPE svg PUBLIC "-//W3C//DTD SVG 20010904//EN"
 "http://www.w3.org/TR/2001/REC-SVG-20010904/DTD/svg10.dtd">
<svg version="1.0" xmlns="http://www.w3.org/2000/svg"
 width="1024.000000pt" height="305.000000pt" viewBox="0 0 1024.000000 305.000000"
 preserveAspectRatio="xMidYMid meet">

<g transform="translate(0.000000,305.000000) scale(0.100000,-0.100000)"
fill="#000000" stroke="none">
<path d="M1025 3008 c-143 -75 -296 -250 -368 -422 -17 -39 -49 -93 -74 -120
-60 -67 -142 -193 -196 -301 -170 -343 -198 -809 -70 -1170 36 -101 117 -252
178 -332 l52 -68 691 -3 692 -2 0 34 c0 62 30 180 62 245 58 120 158 191 224
160 61 -29 58 -107 -6 -139 -75 -38 -120 -128 -120 -242 l0 -58 223 0 c246 1
332 11 442 55 195 78 334 223 401 420 23 67 27 98 28 185 0 183 -55 311 -194
451 -97 98 -182 149 -330 201 -94 32 -97 32 -285 33 -166 0 -202 -3 -280 -23
-118 -30 -235 -79 -356 -148 -126 -72 -233 -106 -455 -144 -98 -18 -186 -36
-196 -41 -52 -28 -118 3 -118 55 0 76 76 107 329 136 249 28 378 92 433 216 7
16 24 41 39 56 14 14 30 41 36 60 9 32 8 35 -42 83 -48 46 -54 58 -75 135 -12
47 -33 109 -47 138 -30 64 -113 156 -188 207 -34 24 -55 46 -55 57 0 35 41
182 66 236 13 29 24 57 24 63 0 28 -178 -65 -253 -132 l-57 -51 0 -73 0 -74
-62 -37 c-35 -20 -67 -39 -72 -42 -11 -6 -1 140 19 282 22 154 24 148 -40 114z
m472 -632 c39 -34 39 -98 0 -132 -63 -54 -157 -17 -157 62 0 82 94 124 157 70z
m-109 -362 c29 -33 28 -50 -7 -85 l-29 -29 -202 0 c-215 0 -251 7 -265 51 -10
29 13 77 41 86 13 4 117 7 231 5 208 -3 208 -3 231 -28z"/>
<path d="M6330 2011 c0 -5 -3 -18 -6 -28 -5 -16 -4 -16 10 1 18 23 20 36 6 36
-5 0 -10 -4 -10 -9z"/>
<path d="M6777 1948 c-34 -46 -74 -127 -113 -233 -29 -77 -41 -96 -86 -137
-73 -65 -133 -96 -155 -82 -33 20 -28 52 9 67 70 29 120 127 64 127 -47 0
-108 -83 -110 -151 -1 -41 17 -69 46 -69 30 0 96 38 144 82 l44 40 -7 -94 c-5
-80 -3 -95 11 -107 15 -12 20 -10 47 14 16 16 44 50 62 77 17 26 34 48 37 48
3 0 13 -14 22 -30 27 -47 75 -36 165 36 23 19 44 34 47 34 3 0 6 -11 6 -25 0
-14 7 -28 15 -31 29 -12 63 6 144 77 46 39 85 69 87 66 3 -3 -12 -63 -34 -134
-31 -106 -46 -138 -82 -183 -78 -99 -128 -240 -86 -240 30 0 69 73 131 245 14
38 39 71 104 135 83 82 86 84 89 58 5 -40 21 -35 77 22 27 28 53 50 57 50 5 0
7 -19 6 -42 -3 -37 0 -43 18 -46 12 -2 41 12 68 32 25 20 46 35 46 33 0 -1 -7
-24 -15 -51 -17 -55 -19 -96 -6 -96 4 0 25 29 46 64 21 36 51 81 68 101 28 35
31 36 44 19 7 -10 13 -29 13 -42 0 -30 17 -62 34 -62 7 0 32 14 56 31 l43 31
-7 -28 c-3 -16 -9 -61 -12 -99 -5 -56 -3 -73 8 -83 12 -10 20 -8 40 8 34 26
192 239 184 247 -7 7 -9 5 -112 -134 -92 -125 -109 -131 -101 -34 7 74 79 312
99 329 7 5 64 15 127 21 63 6 116 13 119 16 13 12 -11 13 -111 3 -60 -5 -110
-8 -113 -5 -3 3 5 28 17 56 41 97 9 65 -50 -49 -5 -9 -34 -19 -74 -25 -88 -13
-99 -28 -14 -19 37 4 67 3 67 -1 0 -4 -12 -40 -26 -81 -21 -58 -36 -83 -75
-119 -26 -25 -53 -45 -59 -45 -14 0 -30 43 -30 81 0 62 -49 43 -114 -45 -20
-27 -36 -44 -36 -38 0 6 14 50 31 97 34 93 33 129 -1 49 -21 -49 -70 -101
-123 -130 -24 -13 -28 -13 -33 0 -7 17 10 73 37 128 35 68 19 79 -24 17 -24
-35 -30 -38 -48 -29 -26 15 -36 7 -164 -115 -55 -52 -103 -94 -106 -93 -4 2 6
46 23 98 36 116 43 150 31 150 -6 0 -18 -9 -28 -20 -24 -26 -34 -25 -45 4 -20
54 -112 32 -167 -41 -58 -78 -167 -163 -209 -163 -41 0 -46 56 -6 71 36 14 68
44 83 81 27 65 -44 63 -89 -2 -181 -265 -211 -286 -191 -130 13 106 24 137 75
220 51 81 114 207 114 227 0 26 -20 22 -43 -9z m-23 -110 c-20 -40 -39 -68
-41 -61 -2 6 13 44 33 85 20 40 39 68 41 61 2 -6 -13 -44 -33 -85z m427 -138
c37 -20 23 -56 -41 -109 -90 -75 -129 -78 -109 -7 12 41 38 76 79 104 37 25
44 26 71 12z m-681 -43 c0 -18 -20 -41 -52 -62 -24 -15 -28 -15 -28 -2 0 21
48 77 66 77 8 0 14 -6 14 -13z m400 -1 c0 -12 -63 -76 -75 -76 -13 0 -2 32 21
59 27 32 54 41 54 17z m597 -12 c5 -15 -89 -111 -94 -97 -5 15 22 68 48 94 20
20 40 21 46 3z m-393 -446 c-20 -40 -39 -67 -42 -60 -5 16 14 65 47 120 40 66
37 23 -5 -60z"/>
<path d="M6232 1957 c-33 -39 -231 -582 -217 -595 3 -3 20 0 38 7 18 8 86 25
152 38 66 14 122 27 124 29 16 15 -24 11 -144 -16 -76 -16 -140 -28 -142 -26
-8 7 126 397 166 480 39 85 47 112 23 83z"/>
<path d="M6525 1760 c-10 -22 -16 -43 -13 -45 7 -7 33 32 42 63 12 38 -10 24
-29 -18z"/>
<path d="M6926 1764 c-9 -20 -14 -39 -11 -42 7 -8 12 -1 30 41 20 48 4 48 -19
1z"/>
<path d="M3307 1430 c23 -111 20 -287 -6 -383 -41 -154 -147 -315 -276 -420
-74 -59 -191 -118 -310 -154 l-90 -28 -1175 -5 -1175 -5 -48 -24 c-56 -27 -93
-72 -112 -134 -29 -96 18 -200 110 -247 l49 -25 1201 -3 c1278 -3 1319 -2
1462 45 243 79 386 207 504 448 71 146 84 202 84 375 0 116 -5 163 -23 235
-27 107 -115 291 -171 355 l-39 45 15 -75z"/>
<path d="M5850 1312 c-18 -9 -42 -31 -52 -47 -14 -25 -126 -369 -198 -610 -10
-33 -32 -102 -50 -154 -22 -65 -30 -104 -26 -126 12 -62 84 -102 150 -84 41
11 71 46 88 100 6 22 17 44 24 49 7 6 58 10 125 8 l113 -3 18 -50 c26 -72 66
-105 126 -105 85 0 133 48 119 120 -4 16 -37 120 -76 232 -38 112 -95 284
-127 383 -31 99 -65 198 -76 220 -30 66 -99 95 -158 67z m78 -546 c12 -41 22
-77 22 -80 0 -3 -23 -6 -51 -6 -44 0 -51 2 -46 18 2 9 13 45 22 80 10 34 21
62 25 62 4 0 17 -33 28 -74z"/>
<path d="M7284 1316 c-66 -29 -64 -13 -64 -512 l0 -452 25 -30 c29 -35 73 -46
125 -32 71 19 74 29 80 239 l5 186 41 -60 c22 -33 70 -112 105 -175 35 -63 79
-132 97 -152 31 -34 39 -38 84 -38 58 0 92 20 107 62 15 43 15 878 0 911 -33
72 -161 77 -216 9 -9 -11 -13 -66 -14 -186 0 -94 -4 -179 -8 -189 -5 -14 -26
17 -88 125 -44 79 -95 171 -113 205 -46 88 -101 117 -166 89z"/>
<path d="M9074 1311 c-26 -12 -45 -29 -53 -48 -8 -21 -11 -144 -9 -475 3 -423
4 -447 22 -467 51 -57 174 -43 201 23 9 23 12 136 11 466 -1 388 -3 438 -18
458 -38 55 -94 71 -154 43z"/>
<path d="M4228 1315 c-2 -2 -27 -6 -57 -9 -130 -15 -287 -135 -349 -267 -57
-120 -66 -293 -22 -412 28 -74 88 -163 146 -217 96 -89 257 -134 395 -111 149
24 279 119 279 203 0 51 -23 94 -60 113 -43 22 -65 19 -115 -20 -55 -41 -110
-58 -187 -57 -220 2 -335 310 -172 459 103 94 241 99 351 13 34 -26 109 -12
145 29 37 42 44 75 25 116 -38 80 -179 150 -314 158 -35 2 -64 3 -65 2z"/>
<path d="M4788 1304 c-52 -28 -52 -28 -56 -494 l-3 -436 23 -34 c35 -52 71
-66 127 -51 86 23 93 40 95 244 l1 132 70 5 c39 3 87 3 108 1 l37 -3 0 -145
c0 -159 10 -199 57 -224 57 -31 141 -5 171 52 9 18 11 128 10 467 l-3 444 -33
29 c-26 23 -42 29 -78 29 -51 0 -98 -21 -114 -49 -6 -11 -10 -91 -10 -185 0
-126 -3 -166 -12 -167 -31 -1 -193 3 -195 5 -2 1 -3 65 -4 142 -1 172 -9 208
-52 234 -38 23 -101 25 -139 4z"/>
<path d="M8370 1306 c-96 -17 -169 -57 -237 -129 -72 -78 -108 -143 -133 -243
-44 -170 -12 -327 96 -476 85 -115 269 -183 430 -158 85 13 184 60 233 110 60
62 129 182 146 255 87 375 -186 702 -535 641z m168 -256 c57 -30 88 -61 116
-114 48 -91 28 -256 -39 -328 -36 -39 -74 -57 -139 -64 -102 -12 -182 39 -229
145 -15 35 -20 66 -19 127 1 94 9 119 54 169 66 76 181 105 256 65z"/>
<path d="M6245 1300 c-42 -17 -68 -57 -68 -106 0 -38 5 -51 32 -77 30 -30 36
-32 121 -35 l90 -4 1 -36 c1 -68 8 -536 8 -615 1 -75 3 -80 32 -108 55 -51
122 -47 174 11 19 21 20 40 25 384 l5 361 85 5 c47 3 95 11 107 18 71 40 72
149 1 192 -31 19 -50 20 -313 19 -154 0 -289 -4 -300 -9z"/>
<path d="M9488 1302 c-15 -2 -38 -17 -53 -33 l-25 -31 0 -450 0 -450 28 -27
c35 -36 90 -46 136 -27 58 24 69 51 71 184 1 107 3 117 21 120 10 1 24 -1 30
-5 6 -5 50 -68 98 -141 85 -129 107 -151 167 -165 64 -16 139 34 139 90 0 43
-4 51 -85 157 -36 48 -65 91 -65 97 0 6 27 37 59 70 84 84 106 133 106 239 0
76 -4 93 -33 152 -63 128 -182 206 -327 214 -111 7 -238 9 -267 6z m306 -256
c35 -15 72 -58 77 -91 6 -40 -12 -94 -38 -115 -21 -16 -40 -20 -104 -20 l-79
0 0 114 c0 82 4 116 13 119 25 11 99 7 131 -7z"/>
</g>
</svg>
