<?xml version="1.0" standalone="no"?>
<!DOCTYPE svg PUBLIC "-//W3C//DTD SVG 20010904//EN"
 "http://www.w3.org/TR/2001/REC-SVG-20010904/DTD/svg10.dtd">
<svg version="1.0" xmlns="http://www.w3.org/2000/svg"
 width="644.000000pt" height="317.000000pt" viewBox="0 0 644.000000 317.000000"
 preserveAspectRatio="xMidYMid meet">

<g transform="translate(0.000000,317.000000) scale(0.100000,-0.100000)"
fill="#000000" stroke="none">
<path d="M2195 3088 c-143 -75 -296 -250 -368 -422 -17 -39 -49 -93 -74 -120
-60 -67 -142 -193 -196 -301 -170 -343 -198 -809 -70 -1170 36 -101 117 -252
178 -332 l52 -68 691 -3 692 -2 0 34 c0 62 30 180 62 245 58 120 158 191 224
160 61 -29 58 -107 -6 -139 -75 -38 -120 -128 -120 -242 l0 -58 223 0 c246 1
332 11 442 55 195 78 334 223 401 420 23 67 27 98 28 185 0 183 -55 311 -194
451 -97 98 -182 149 -330 201 -94 32 -97 32 -285 33 -166 0 -202 -3 -280 -23
-118 -30 -235 -79 -356 -148 -126 -72 -233 -106 -455 -144 -98 -18 -186 -36
-196 -41 -52 -28 -118 3 -118 55 0 76 76 107 329 136 249 28 378 92 433 216 7
16 24 41 39 56 14 14 30 41 36 60 9 32 8 35 -42 83 -48 46 -54 58 -75 135 -12
47 -33 109 -47 138 -30 64 -113 156 -188 207 -34 24 -55 46 -55 57 0 35 41
182 66 236 13 29 24 57 24 63 0 28 -178 -65 -253 -132 l-57 -51 0 -73 0 -74
-62 -37 c-35 -20 -67 -39 -72 -42 -11 -6 -1 140 19 282 22 154 24 148 -40 114z
m472 -632 c22 -19 28 -32 28 -66 0 -34 -6 -47 -28 -66 -63 -54 -157 -17 -157
62 0 82 94 124 157 70z m-109 -362 c29 -33 28 -50 -7 -85 l-29 -29 -202 0
c-215 0 -251 7 -265 51 -10 29 13 77 41 86 13 4 117 7 231 5 208 -3 208 -3
231 -28z"/>
<path d="M4477 1510 c23 -111 20 -287 -6 -383 -41 -154 -147 -315 -276 -420
-74 -59 -191 -118 -310 -154 l-90 -28 -1175 -5 -1175 -5 -48 -24 c-56 -27 -93
-72 -112 -134 -29 -96 18 -200 110 -247 l49 -25 1201 -3 c1278 -3 1319 -2
1462 45 243 79 386 207 504 448 71 146 84 202 84 375 0 116 -5 163 -23 235
-27 107 -115 291 -171 355 l-39 45 15 -75z"/>
</g>
</svg>
