<?xml version="1.0" standalone="no"?>
<!DOCTYPE svg PUBLIC "-//W3C//DTD SVG 20010904//EN"
 "http://www.w3.org/TR/2001/REC-SVG-20010904/DTD/svg10.dtd">
<svg version="1.0" xmlns="http://www.w3.org/2000/svg"
 width="1440.000000pt" height="217.000000pt" viewBox="0 0 1440.000000 217.000000"
 preserveAspectRatio="xMidYMid meet">

<g transform="translate(0.000000,217.000000) scale(0.100000,-0.100000)"
fill="#000000" stroke="none">
<path d="M0 1829 c0 -377 -1 -369 64 -369 29 0 36 -4 36 -20 0 -17 -7 -20 -40
-20 -29 0 -40 -4 -40 -15 0 -11 11 -15 40 -15 22 0 40 -4 40 -10 0 -5 18 -10
40 -10 22 0 40 -4 40 -10 0 -5 20 -10 45 -10 25 0 45 -4 45 -10 0 -6 35 -10
85 -10 70 0 85 -3 85 -16 0 -12 9 -14 42 -12 59 4 63 28 4 28 -39 0 -46 3 -46
20 0 13 7 20 20 20 11 0 20 -4 20 -10 0 -5 10 -10 23 -10 12 0 35 -7 51 -15
15 -8 35 -15 42 -15 8 0 14 -4 14 -10 0 -5 18 -10 40 -10 33 0 40 -3 40 -20 0
-17 7 -20 40 -20 22 0 40 -4 40 -10 0 -5 -18 -10 -40 -10 -29 0 -40 -4 -40
-15 0 -8 9 -15 19 -15 11 0 23 -4 26 -10 12 -19 45 -11 45 10 0 17 7 20 40 20
22 0 40 -4 40 -10 0 -5 18 -10 40 -10 22 0 40 -4 40 -10 0 -5 20 -10 45 -10
41 0 45 -2 45 -25 0 -25 1 -25 85 -25 50 0 85 -4 85 -10 0 -6 50 -10 128 -11
l127 -1 -50 -14 c-27 -8 -66 -15 -85 -15 -34 0 -35 -2 -37 -40 l-3 -39 85 0
c78 0 85 -2 85 -20 0 -13 7 -20 20 -20 11 0 20 -4 20 -10 0 -6 28 -10 65 -10
51 0 65 -3 65 -15 0 -11 11 -15 40 -15 33 0 40 -3 40 -20 0 -14 7 -20 21 -20
11 0 17 -4 14 -10 -3 -5 -30 -10 -58 -10 -38 0 -48 -3 -37 -10 11 -7 5 -8 -19
-3 -20 3 -32 2 -28 -3 5 -9 -39 -21 -408 -110 -82 -20 -158 -40 -167 -45 -25
-13 -22 -27 5 -31 22 -3 22 -4 25 -210 l2 -207 -37 -10 c-21 -5 -99 -22 -173
-36 -74 -15 -139 -31 -144 -36 -6 -5 0 -12 15 -18 13 -5 20 -10 14 -11 -5 0 4
-7 21 -14 28 -12 33 -20 39 -65 l7 -51 436 0 c242 0 431 4 424 9 -11 7 -10 10
3 15 26 10 35 7 35 -9 0 -13 725 -15 6355 -15 l6355 0 0 1085 0 1085 -7200 0
-7200 0 0 -341z m6568 -195 c38 -26 26 -74 -26 -103 -14 -8 -10 -16 32 -53 63
-56 103 -78 144 -78 42 0 89 24 97 50 6 20 35 29 35 11 0 -20 -59 -70 -96 -80
-89 -25 -150 -9 -226 59 -42 37 -64 50 -87 50 -29 0 -31 -2 -31 -40 0 -26 5
-42 17 -48 17 -10 13 -12 -79 -28 -40 -7 -55 9 -18 19 18 5 20 14 20 100 0 88
-2 96 -21 102 -28 9 -21 14 58 35 86 23 152 25 181 4z m-351 -60 c-28 -15 -28
-15 -25 -112 3 -93 4 -96 28 -102 19 -5 11 -9 -39 -18 -66 -12 -90 -8 -58 9
14 8 17 25 17 104 0 78 -3 95 -15 95 -8 0 -15 4 -15 10 0 12 55 28 100 29 l35
0 -28 -15z m-557 -63 c0 -5 -8 -11 -19 -14 -17 -4 -19 -19 -26 -146 -4 -77 -8
-141 -10 -141 -1 0 -62 36 -136 80 -73 44 -136 80 -141 80 -10 0 -10 -60 -2
-124 4 -29 12 -46 20 -46 30 0 12 -18 -23 -24 -63 -10 -68 -9 -49 13 15 17 16
33 10 140 -6 105 -5 121 9 127 10 3 69 -24 149 -69 l133 -74 6 76 c5 58 3 79
-7 87 -21 17 -17 22 19 33 42 12 67 13 67 2z m315 -5 c88 -37 66 -155 -39
-206 -177 -85 -331 34 -203 158 17 17 48 38 67 46 44 19 131 20 175 2z m-5722
-123 c-13 -2 -33 -2 -45 0 -13 2 -3 4 22 4 25 0 35 -2 23 -4z m4817 -58 c0
-39 -2 -41 -23 -20 -11 10 -25 13 -46 9 l-31 -6 0 -94 c0 -88 1 -93 23 -96 14
-3 1 -9 -36 -17 -56 -12 -104 -9 -61 4 14 4 24 18 28 37 7 38 8 143 1 150 -3
3 -23 1 -45 -4 -26 -7 -40 -17 -44 -31 -7 -27 -30 -9 -24 19 3 15 26 24 115
44 61 14 115 28 119 33 16 15 24 6 24 -28z m-324 -122 c28 -38 60 -82 72 -99
l22 -31 -43 -6 c-40 -5 -65 1 -40 10 10 3 10 10 2 24 -9 17 -17 19 -57 14 -63
-9 -114 -65 -59 -65 32 -1 1 -17 -38 -20 -46 -3 -49 -1 -33 18 19 20 108 195
108 211 0 24 19 8 66 -56z m-241 13 c-14 -10 -16 -27 -13 -96 3 -80 4 -84 28
-90 31 -7 14 -15 -56 -25 -40 -6 -47 -5 -36 6 6 7 12 31 12 52 0 36 -2 39 -22
34 -13 -4 -42 -9 -65 -13 -43 -7 -43 -7 -43 -50 0 -39 3 -44 23 -45 21 0 21
-1 2 -8 -11 -4 -37 -11 -58 -14 -29 -5 -36 -3 -29 6 5 7 13 49 16 95 7 79 7
82 -15 90 -30 12 -14 20 52 27 45 4 50 3 32 -6 -17 -9 -23 -21 -23 -47 0 -30
2 -34 23 -29 12 4 41 9 65 13 39 6 42 9 42 37 0 16 -8 35 -17 42 -15 11 -11
15 32 27 54 16 76 13 50 -6z m-333 -50 l-4 -44 -35 24 c-54 36 -123 27 -175
-23 -83 -79 -12 -207 106 -188 43 7 106 40 106 56 0 5 7 9 15 9 13 0 14 -4 5
-21 -38 -71 -210 -91 -279 -33 -57 48 -47 130 22 191 42 36 86 53 172 63 33 4
62 8 65 8 3 1 4 -18 2 -42z m-2512 -151 c0 -38 -3 -45 -20 -45 -12 0 -20 7
-20 16 0 13 -9 15 -45 12 -31 -2 -45 1 -45 9 0 8 -16 14 -42 15 l-43 1 43 4
c25 3 45 10 49 19 4 10 22 14 64 14 l59 0 0 -45z m1940 10 c0 -3 -11 -10 -25
-15 -24 -9 -25 -13 -25 -90 0 -64 3 -80 15 -80 8 0 15 -4 15 -10 0 -5 -8 -10
-19 -10 -10 0 -34 -3 -52 -6 -28 -4 -31 -3 -16 6 14 9 17 26 17 90 0 72 -2 80
-19 80 -30 0 -51 -11 -51 -26 0 -8 -4 -14 -10 -14 -5 0 -10 10 -10 23 0 20 8
24 78 38 90 19 102 21 102 14z m-1730 -45 c0 -5 9 -10 20 -10 11 0 20 -4 20
-10 0 -5 18 -10 41 -10 28 0 39 -4 36 -12 -2 -7 -15 -12 -29 -10 -14 2 -40 -6
-59 -17 -19 -11 -51 -23 -71 -26 l-38 -7 0 56 0 56 40 0 c22 0 40 -4 40 -10z
m5958 -430 c0 -203 -3 -301 -9 -275 -11 52 -18 391 -11 575 9 233 20 72 20
-300z m-4456 333 c-2 -54 -6 -100 -8 -102 -3 -3 -66 40 -141 97 l-33 24 0 -70
c0 -59 3 -71 18 -75 9 -2 0 -7 -23 -11 -22 -5 -65 -14 -95 -22 -54 -13 -77
-11 -51 6 28 17 4 40 -42 40 -45 0 -46 -1 -75 -64 -3 -4 6 -5 19 -2 17 5 19 4
9 -2 -8 -5 -30 -12 -48 -15 -30 -6 -32 -5 -18 8 15 16 62 108 91 179 l16 40
48 -75 c56 -87 70 -100 98 -93 20 5 22 14 25 91 2 47 -1 88 -6 91 -5 3 0 9 12
13 17 7 36 -1 85 -36 85 -59 88 -59 93 -2 4 37 1 49 -12 54 -12 5 -13 7 -2 14
7 5 20 9 28 9 13 0 14 -16 12 -97z m-558 -19 c9 -3 16 -17 16 -30 0 -27 -15
-32 -24 -9 -3 10 -19 15 -44 15 -57 0 -102 -47 -102 -106 0 -49 17 -64 72 -64
41 0 58 15 58 52 0 20 -4 26 -15 22 -8 -4 -15 -2 -15 4 0 10 32 22 62 22 10 0
15 -6 13 -17 -14 -70 -17 -75 -50 -89 -47 -19 -94 -18 -132 6 -40 24 -44 65
-12 117 23 37 58 58 116 72 21 5 39 9 40 10 1 1 8 -2 17 -5z m-224 -79 c0 -25
-23 -35 -35 -15 -12 20 -75 11 -100 -15 -49 -48 -24 -135 39 -135 36 0 72 30
63 54 -3 8 2 16 14 19 15 4 19 0 19 -18 0 -68 -121 -103 -174 -49 -33 32 -13
119 33 149 30 19 76 33 109 34 28 1 32 -2 32 -24z m3970 15 c0 -5 -17 -10 -37
-10 -28 0 -34 3 -23 10 20 13 60 13 60 0z m-4196 -46 c8 -21 -2 -33 -13 -16
-10 17 -69 4 -81 -19 -17 -31 -12 -49 14 -49 14 0 28 5 31 10 11 17 37 11 33
-7 -3 -17 -10 -19 -65 -22 -20 -1 -23 -7 -23 -37 l0 -37 41 6 c22 3 49 13 60
23 17 15 19 15 19 1 0 -20 -22 -32 -75 -41 -22 -4 -48 -10 -58 -12 -17 -5 -19
1 -16 78 2 46 0 89 -4 95 -7 11 10 18 88 36 36 8 43 7 49 -9z m-374 -54 c0
-20 -5 -30 -15 -30 -8 0 -15 9 -15 20 0 18 -5 20 -42 14 -66 -9 -68 -10 -68
-54 0 -37 2 -40 29 -40 16 0 31 6 35 15 10 27 26 15 26 -20 0 -19 -4 -35 -10
-35 -5 0 -10 5 -10 11 0 6 -14 9 -32 7 -31 -3 -33 -6 -36 -46 -4 -52 9 -59 77
-42 39 9 51 17 55 36 9 33 28 31 22 -2 -3 -15 -8 -29 -11 -32 -3 -3 -54 -16
-113 -28 -85 -18 -102 -19 -84 -7 20 14 22 23 22 114 0 83 -3 100 -17 108 -16
8 -15 10 7 15 80 17 119 24 148 25 29 1 32 -2 32 -29z m118 -1 c-15 -8 -18
-24 -18 -86 l0 -75 33 6 c17 3 39 15 49 26 21 26 30 25 26 -2 -2 -19 -14 -26
-68 -40 -78 -19 -100 -21 -100 -8 0 6 7 10 15 10 12 0 15 15 15 75 0 43 -4 75
-10 75 -5 0 -10 4 -10 9 0 11 23 18 60 20 22 0 23 -1 8 -10z m4685 -10 c31 -7
63 -19 72 -29 18 -20 44 -14 -323 -67 -107 -15 -189 -29 -183 -31 6 -2 119 11
252 28 200 27 243 30 250 19 13 -21 11 -29 -10 -29 -11 0 -22 -4 -26 -10 -3
-5 -13 -6 -23 -3 -16 5 -16 4 1 -13 13 -14 20 -16 25 -7 7 10 14 10 35 0 15
-6 27 -15 27 -19 0 -5 9 -8 20 -8 11 0 20 -4 20 -10 0 -5 9 -10 21 -10 15 0
19 -5 15 -15 -3 -10 1 -15 14 -15 10 0 22 -4 25 -10 3 -5 14 -10 25 -10 11 0
20 -10 24 -25 4 -14 11 -25 16 -25 6 0 10 -8 10 -18 0 -10 5 -23 12 -30 8 -8
8 -12 1 -12 -6 0 -16 7 -23 15 -13 15 -53 12 -77 -7 -7 -5 -22 -6 -35 -2 -13
4 -27 8 -33 8 -5 1 -20 7 -32 14 -26 14 -61 18 -85 7 -11 -4 -18 -3 -18 4 0 6
7 11 16 11 12 0 10 6 -10 21 -24 19 -26 25 -23 84 4 64 -5 97 -20 81 -4 -4 -7
-38 -6 -74 2 -37 0 -62 -3 -55 -3 7 -11 10 -19 7 -7 -3 -23 0 -35 6 -12 6 -54
13 -93 14 -83 4 -121 12 -125 26 -2 5 -14 10 -26 10 -12 0 -45 11 -72 25 -34
17 -65 25 -103 25 -36 0 -72 8 -112 26 -63 29 -76 44 -16 19 63 -26 55 -15
-15 21 -38 19 -68 36 -68 39 0 5 10 1 119 -44 84 -35 103 -39 49 -10 -82 43
-28 65 187 78 211 12 316 12 378 0z m1307 1 c0 -5 -11 -10 -25 -10 -14 0 -25
5 -25 10 0 6 11 10 25 10 14 0 25 -4 25 -10z m-6400 -45 c0 -23 -29 -75 -41
-75 -6 0 -8 7 -5 16 3 9 6 29 6 45 0 22 5 29 20 29 11 0 20 -7 20 -15z m-152
-48 c-13 -10 -15 -27 -11 -96 l6 -83 41 6 c24 4 49 15 59 28 20 24 37 16 21
-10 -6 -9 -33 -22 -60 -28 -105 -23 -115 -24 -108 -12 12 19 4 182 -9 190 -6
4 1 9 19 13 16 4 34 8 39 10 18 4 19 -5 3 -18z m6201 -41 c27 -15 30 -24 38
-108 4 -48 2 -62 -17 -87 -12 -17 -28 -31 -36 -31 -9 0 -30 -11 -49 -25 -24
-19 -40 -24 -59 -19 -39 9 -48 37 -44 124 l3 78 45 41 c48 43 78 50 119 27z
m-1610 -22 c14 -12 -19 -1 -35 12 -18 14 -18 14 6 3 14 -6 27 -13 29 -15z
m1008 -166 c-2 -35 -3 -9 -3 57 0 66 1 94 3 63 2 -32 2 -86 0 -120z m-827 152
c12 -7 21 -7 25 0 13 20 154 -64 155 -93 0 -11 -61 2 -78 16 -19 15 -24 3 -16
-38 l7 -38 11 26 c8 20 15 24 25 18 17 -11 25 -51 11 -51 -5 0 -2 -9 7 -20 26
-30 33 -25 33 29 0 61 13 67 68 35 48 -29 54 -64 11 -64 -5 0 -7 4 -4 10 7 12
-6 38 -20 40 -5 1 -13 -9 -17 -22 -6 -23 -6 -23 -7 -1 -1 12 -5 24 -10 28 -17
10 -6 -82 11 -99 21 -21 34 -20 50 3 14 20 32 10 34 -21 2 -21 -46 -35 -57
-16 -5 7 -9 9 -9 3 0 -5 -7 -1 -16 10 -14 19 -15 19 -21 -3 -5 -22 -9 -23 -59
-16 -40 5 -54 3 -54 -6 0 -7 7 -10 15 -6 20 7 85 -24 85 -41 0 -18 -13 -16
-56 8 -21 11 -46 18 -56 16 -10 -3 -18 -1 -18 4 0 5 -4 9 -10 9 -5 0 -10 -7
-10 -15 0 -8 6 -15 13 -15 7 0 23 -9 35 -20 12 -11 25 -20 30 -20 5 0 16 -7
23 -16 12 -15 14 -14 21 7 5 17 6 13 4 -14 -2 -20 0 -40 5 -43 5 -3 9 -15 9
-27 0 -19 -5 -16 -36 21 -20 23 -44 42 -54 42 -34 0 -47 10 -43 34 3 13 0 27
-6 30 -7 5 -9 1 -5 -11 6 -15 4 -15 -9 2 -19 23 -22 39 -6 29 7 -4 10 -2 8 5
-7 19 -24 9 -25 -14 -2 -42 -17 -75 -33 -75 -14 0 -16 15 -14 132 3 164 11
258 24 258 6 0 19 -5 29 -10z m-1810 -19 c0 -16 -19 -23 -43 -15 -21 7 -21 7
-2 15 28 11 45 11 45 0z m270 -49 c0 -13 -12 -22 -22 -16 -10 6 -1 24 13 24 5
0 9 -4 9 -8z m1298 -18 c12 -4 22 -10 22 -16 0 -5 9 -18 20 -30 21 -23 28
-102 10 -113 -5 -3 -10 -24 -10 -46 0 -21 5 -39 10 -39 6 0 10 -20 10 -45 0
-37 -3 -45 -19 -45 -17 0 -29 37 -33 100 0 8 -5 21 -11 28 -7 9 -7 16 1 24 19
19 14 66 -7 78 -11 5 -45 10 -75 10 l-56 0 0 50 0 50 58 0 c31 0 67 -3 80 -6z
m2007 -4 c-3 -5 -10 -10 -16 -10 -5 0 -9 5 -9 10 0 6 7 10 16 10 8 0 12 -4 9
-10z m-1598 -57 c-3 -10 -5 -4 -5 12 0 17 2 24 5 18 2 -7 2 -21 0 -30z m-299
-86 c2 -62 -1 -97 -8 -97 -5 0 -10 8 -11 18 0 15 -2 14 -10 -3 -7 -16 -8 -12
-4 14 3 18 5 65 5 103 0 51 3 69 13 66 8 -3 13 -35 15 -101z m700 67 c36 -10
25 -24 -18 -24 -38 0 -49 8 -33 23 8 8 21 9 51 1z m-328 -14 c0 -5 -5 -10 -11
-10 -5 0 -7 5 -4 10 3 6 8 10 11 10 2 0 4 -4 4 -10z m1540 -19 c0 -11 -31 -24
-39 -16 -3 3 1 10 9 15 19 12 30 12 30 1z m-1269 -61 c33 -18 16 -100 -21
-100 -10 0 -10 3 1 16 7 9 9 18 3 22 -5 4 -14 22 -21 40 -9 27 -9 32 4 32 8 0
23 -5 34 -10z m316 -12 c-3 -8 -6 -5 -6 6 -1 11 2 17 5 13 3 -3 4 -12 1 -19z
m-1869 -8 c29 -18 32 -25 32 -65 0 -91 -65 -165 -145 -165 -35 0 -48 33 -42
101 7 80 49 148 92 149 17 0 45 -9 63 -20z m-2318 -23 c10 -4 8 -6 -7 -6 -12
-1 -24 3 -27 8 -7 11 6 24 13 13 3 -5 13 -12 21 -15z m4834 -23 c20 -23 25
-39 25 -79 -1 -27 -3 -42 -6 -32 -4 16 -7 15 -23 -6 -49 -63 -148 -71 -202
-17 -38 39 -36 68 10 112 53 51 71 59 124 55 36 -3 52 -10 72 -33z m-3049 16
c-3 -5 -10 -10 -16 -10 -5 0 -9 5 -9 10 0 6 7 10 16 10 8 0 12 -4 9 -10z
m-1872 -17 c-7 -2 -19 -2 -25 0 -7 3 -2 5 12 5 14 0 19 -2 13 -5z m3701 -1 c3
-5 -1 -9 -9 -9 -8 0 -15 4 -15 9 0 4 4 8 9 8 6 0 12 -4 15 -8z m-494 -59 c0
-11 -39 -22 -71 -21 -20 2 -13 38 6 38 8 0 17 10 21 22 l6 21 19 -24 c10 -13
19 -29 19 -36z m247 35 c-3 -8 -6 -5 -6 6 -1 11 2 17 5 13 3 -3 4 -12 1 -19z
m639 1 c4 -7 0 -9 -12 -5 -11 3 -34 2 -52 -4 -18 -5 -41 -6 -50 -2 -14 5 -13
7 8 13 40 11 98 10 106 -2z m-236 -16 c13 3 20 1 17 -6 -4 -13 -74 -20 -82 -7
-3 6 1 10 9 10 9 0 16 6 16 13 0 8 3 8 9 -2 5 -8 18 -12 31 -8z m-550 -3 c0
-5 -2 -10 -4 -10 -3 0 -8 5 -11 10 -3 6 -1 10 4 10 6 0 11 -4 11 -10z m397 4
c-3 -3 -12 -4 -19 -1 -8 3 -5 6 6 6 11 1 17 -2 13 -5z m1528 -14 c-3 -5 -10
-10 -16 -10 -5 0 -9 5 -9 10 0 6 7 10 16 10 8 0 12 -4 9 -10z m-3202 -7 c-7
-2 -19 -2 -25 0 -7 3 -2 5 12 5 14 0 19 -2 13 -5z m1627 -17 c0 -2 -7 -7 -16
-10 -8 -3 -12 -2 -9 4 6 10 25 14 25 6z m235 -16 c3 -6 -1 -7 -9 -4 -18 7 -21
14 -7 14 6 0 13 -4 16 -10z m323 3 c-10 -2 -26 -2 -35 0 -10 3 -2 5 17 5 19 0
27 -2 18 -5z m-1010 -10 c-10 -2 -26 -2 -35 0 -10 3 -2 5 17 5 19 0 27 -2 18
-5z m-4450 -25 c-3 -7 -15 -14 -29 -16 -24 -4 -24 -3 -4 12 24 19 38 20 33 4z
m1221 -3 c-9 -9 -23 -13 -32 -9 -24 9 -11 24 21 24 24 0 25 -2 11 -15z m3282
-37 c-20 -4 -49 -7 -66 -7 -26 0 -27 2 -10 9 11 5 35 9 53 9 17 1 32 6 32 11
0 6 6 5 14 -2 12 -11 8 -14 -23 -20z m206 -4 c-3 -3 -12 -4 -19 -1 -8 3 -5 6
6 6 11 1 17 -2 13 -5z"/>
<path d="M6423 1613 c-8 -3 -13 -23 -13 -49 0 -41 2 -44 28 -44 15 0 42 9 60
20 54 33 37 81 -27 79 -20 0 -42 -3 -48 -6z"/>
<path d="M5814 1486 c-130 -58 -71 -228 65 -188 85 26 122 116 69 168 -30 31
-91 40 -134 20z"/>
<path d="M4671 1164 c-14 -32 -11 -37 23 -28 29 7 30 8 16 35 -14 26 -25 24
-39 -7z"/>
<path d="M2976 818 c-9 -34 -8 -36 19 -30 28 5 30 10 11 35 -17 22 -22 22 -30
-5z"/>
<path d="M6316 463 c8 -59 14 -67 15 -22 l2 34 7 -40 c8 -39 8 -39 6 12 -1 43
-3 50 -15 40 -12 -10 -14 -9 -8 6 3 9 2 17 -4 17 -7 0 -8 -17 -3 -47z"/>
<path d="M6363 435 c0 -22 2 -30 4 -17 2 12 2 30 0 40 -3 9 -5 -1 -4 -23z"/>
<path d="M6383 425 c0 -22 2 -30 4 -17 2 12 2 30 0 40 -3 9 -5 -1 -4 -23z"/>
<path d="M6312 340 c0 -14 2 -19 5 -12 2 6 2 18 0 25 -3 6 -5 1 -5 -13z"/>
<path d="M6330 350 c0 -5 5 -10 10 -10 6 0 10 5 10 10 0 6 -4 10 -10 10 -5 0
-10 -4 -10 -10z"/>
<path d="M6370 334 c0 -8 4 -13 9 -10 5 4 12 0 14 -6 4 -8 6 -7 6 3 1 9 -6 19
-14 23 -9 3 -15 0 -15 -10z"/>
<path d="M6411 314 c0 -11 3 -14 6 -6 3 7 2 16 -1 19 -3 4 -6 -2 -5 -13z"/>
<path d="M6462 285 c12 -14 25 -25 30 -25 16 0 8 29 -11 40 -34 17 -42 11 -19
-15z"/>
<path d="M6373 179 c-1 -10 2 -19 8 -19 11 0 12 27 1 34 -4 2 -9 -4 -9 -15z"/>
<path d="M5952 395 c0 -16 2 -22 5 -12 2 9 2 23 0 30 -3 6 -5 -1 -5 -18z"/>
<path d="M1280 1106 c0 -2 11 -6 25 -8 13 -3 22 -1 19 3 -5 9 -44 13 -44 5z"/>
</g>
</svg>
